<?xml version="1.0" encoding="UTF-8" standalone="no"?>
<svg
   xmlns:dc="http://purl.org/dc/elements/1.1/"
   xmlns:cc="http://creativecommons.org/ns#"
   xmlns:rdf="http://www.w3.org/1999/02/22-rdf-syntax-ns#"
   xmlns:svg="http://www.w3.org/2000/svg"
   xmlns="http://www.w3.org/2000/svg"
   xmlns:sodipodi="http://sodipodi.sourceforge.net/DTD/sodipodi-0.dtd"
   xmlns:inkscape="http://www.inkscape.org/namespaces/inkscape"
   color-rendering="auto"
   color-interpolation="auto"
   text-rendering="auto"
   stroke-miterlimit="10"
   shape-rendering="auto"
   font-weight="normal"
   font-style="normal"
   font-size="12"
   image-rendering="auto"
   id="svg2998"
   version="1.1"
   inkscape:version="0.48.4 r9939"
   width="264.65631"
   height="257.20309"
   sodipodi:docname="antenna_with_bars.svg"
   style="font-size:12px;font-style:normal;font-weight:normal;fill:#000000;fill-opacity:1;stroke:#000000;stroke-width:1;stroke-linecap:square;stroke-linejoin:miter;stroke-miterlimit:10;stroke-opacity:1;stroke-dasharray:none;stroke-dashoffset:0;font-family:Dialog">
  <metadata
     id="metadata3009">
    <rdf:RDF>
      <cc:Work
         rdf:about="">
        <dc:format>image/svg+xml</dc:format>
        <dc:type
           rdf:resource="http://purl.org/dc/dcmitype/StillImage" />
        <dc:title />
      </cc:Work>
    </rdf:RDF>
  </metadata>
  <sodipodi:namedview
     pagecolor="#ffffff"
     bordercolor="#666666"
     borderopacity="1"
     objecttolerance="10"
     gridtolerance="10"
     guidetolerance="10"
     inkscape:pageopacity="0"
     inkscape:pageshadow="2"
     inkscape:window-width="1143"
     inkscape:window-height="814"
     id="namedview3007"
     showgrid="false"
     inkscape:zoom="0.99965584"
     inkscape:cx="158.22861"
     inkscape:cy="53.103797"
     inkscape:window-x="0"
     inkscape:window-y="0"
     inkscape:window-maximized="0"
     inkscape:current-layer="svg2998"
     fit-margin-top="0"
     fit-margin-left="0"
     fit-margin-right="0"
     fit-margin-bottom="0" />
  <!--Unicode Character 'ANTENNA WITH BARS' (U+1F4F6)-->
  <defs
     id="genericDefs" />
  <g
     id="g2995"
     transform="translate(-84.556332,-146.77341)">
    <path
       style="stroke:none"
       inkscape:connector-curvature="0"
       id="path3005"
       d="m 349.21263,403.97651 -25.1719,0 0,-257.2031 25.1719,0 0,257.2031 z m -56.8125,0 -26.0156,0 0,-189.5625 26.0156,0 0,189.5625 z m -46.8281,-245.1093 q 0,3.2343 -1.9688,6.3281 -0.8437,1.2656 -10.125,11.9531 -7.5937,8.7188 -22.7812,26.0156 l -32.9063,37.5469 0,163.2656 -25.4531,0 0,-163.2656 q -36.8437,-40.7813 -59.484398,-67.6406 -2.25,-2.3907 -6.3281,-7.4531 -1.9688,-2.9532 -1.9688,-6.75 0,-4.7813 3.7266,-8.4376 3.7266,-3.6562 8.5078,-3.6562 l 136.546898,0 q 5.0625,0 8.6484,3.5156 3.586,3.5156 3.586,8.5782 z m -10.6875,245.1093 -25.5938,0 0,-122.3437 25.5938,0 0,122.3437 z m -29.5313,-232.4531 -27.2812,0 0,30.9375 27.2812,-30.9375 z m -53.1562,30.9375 0,-30.9375 -26.8594,0 26.8594,30.9375 z" />
  </g>
</svg>
